# xmcd CD database file
#
# Track frame offsets:
#	150
#	17135
#	36372
#	57707
#	85268
#	100963
#	121174
#	139807
#	164425
#
# Disc length: 2466 seconds
#
# Revision: 0
# Processed by: cddbd v1.5.1PL0 Copyright (c) Steve Scherf et al.
# Submitted via: CDex 1.51
#
DISCID=7b09a009
DTITLE=MIZZ - ミズノキオク
DYEAR=2003
DGENRE=JPop
TTITLE0=時にはメリーゴーラウンドに乗りそびれた魔法使いの様に
TTITLE1=勝部フラワーショップ
TTITLE2=少年とサンダル
TTITLE3=ボスボスの花
TTITLE4=鳴り響け蹄鉄
TTITLE5=羊男の唄
TTITLE6=赤く淫らな魚
TTITLE7=嗚呼、この万感の想い
TTITLE8=1969年のデュラムセモリナ達
EXTD=YEAR: 2003
EXTT0=
EXTT1=
EXTT2=
EXTT3=
EXTT4=
EXTT5=
EXTT6=
EXTT7=
EXTT8=
PLAYORDER=
